PathFileType	4	(X/Y/Z)	D:\TRACE\v60_Jaco2_6-2-23\JustBodyDRS_Motion3_10-v60.trc
DataRate	CameraRate	NumFrames	NumMarkers	Units	OrigDataRate	OrigDataStartFrame	OrigNumFrames
100.00	100.00	      13	9	mm	100.00	5251	      7000
Frame#	Time	front left toe			Front right toe			aft left toe			aft right toe			Arm			FL body			FR body			AL Body			AR Body			
		X1	Y1	Z1	X2	Y2	Z2	X3	Y3	Z3	X4	Y4	Z4	X5	Y5	Z5	X6	Y6	Z6	X7	Y7	Z7	X8	Y8	Z8	X9	Y9	Z9	

5251	52.500	-308.33905	-3.01111	-292.98764	126.20607	-0.96646	-313.61389	-222.18442	31.75652	325.07300	86.05435	33.47172	316.32556	-94.78650	1151.96912	-412.03479	-182.89252	501.05115	-472.70526	-24.04772	504.22150	-477.18347	-153.98145	576.42963	467.88528	-0.71409	570.20190	464.44809	
5252	52.510	-308.47931	-4.17396	-293.23880	122.79321	2.17922	-311.39877	-221.18004	35.22477	326.09958	85.57765	32.31977	315.79401	-96.10322	1152.86694	-413.86511	-183.63864	502.25537	-473.51526	-24.66493	505.07980	-477.37308	-155.68170	576.40332	467.58795	-3.82967	570.60907	464.03952	
5253	52.520	-308.34525	-4.36816	-293.98965	117.19410	5.87260	-307.55493	-219.34995	39.09563	328.91708	85.85201	33.00293	314.87640	-97.54365	1153.50891	-415.08441	-184.19926	502.98959	-474.25327	-25.22606	506.11380	-478.00696	-157.50986	576.67059	466.96765	-4.23884	570.94751	463.95309	
5254	52.530	-308.04214	-4.36655	-293.97888	114.41769	15.66085	-305.13531	-217.74498	49.60580	328.86618	85.95150	32.93481	315.27979	-99.31746	1153.81982	-414.84683	-184.29675	502.95859	-474.39450	-25.68583	506.24518	-478.27158	-158.72215	577.23712	466.82083	-5.72590	571.54871	463.63263	
5255	52.540	-307.84317	-4.72854	-293.89331	112.89101	25.15023	-303.96149	-217.25792	59.66564	329.09204	86.04430	33.39919	315.02094	-100.44784	1153.87085	-414.25943	-184.86395	502.65204	-474.47559	-26.16260	506.00259	-478.14334	-159.85617	578.00446	466.54102	-8.30258	572.66614	463.45511	
5256	52.550	-307.63370	-4.82514	-293.65872	112.50152	37.69630	-304.59628	-220.40831	72.94650	327.91235	86.46384	33.27691	315.28943	-101.25327	1154.00574	-413.61969	-185.61273	502.05014	-474.42062	-26.78845	505.76605	-477.97421	-160.61909	578.27545	466.73541	-7.63293	572.91815	463.71228	
5257	52.560	-307.31210	-5.03602	-293.57578	112.51180	50.38038	-305.87506	-224.74316	85.82500	327.26862	87.56889	33.24287	315.12863	-101.47835	1153.69714	-413.42331	-186.37633	501.60776	-473.89291	-27.52369	505.65213	-477.62341	-160.68936	578.15833	467.16431	-8.15105	573.00702	464.03732	
5258	52.570	-307.05911	-5.28340	-293.47195	113.02876	63.81062	-306.11108	-229.63129	98.20152	327.18460	87.73254	33.15145	315.20981	-102.20814	1152.86719	-413.55560	-187.05521	501.28683	-473.35391	-28.31772	505.49472	-477.13092	-160.80028	577.77930	467.63617	-8.31287	572.91412	464.42960	
5259	52.580	-306.80814	-5.44411	-293.45776	112.42587	76.39482	-305.84644	-233.73134	110.45667	327.62796	87.89393	32.94078	314.91650	-103.78693	1152.20129	-413.40891	-187.64050	500.91193	-472.42459	-28.76065	505.26205	-476.46945	-160.71750	577.49182	468.25638	-7.95958	572.71985	465.13324	
5260	52.590	-306.43103	-5.57388	-293.32904	112.01119	88.83221	-305.05862	-236.88307	122.05721	328.12091	88.25558	32.97766	314.88422	-105.68584	1151.82227	-412.83072	-188.39212	500.94153	-471.84363	-29.36495	505.25153	-475.85626	-160.33920	577.34521	469.18918	-7.79032	572.75336	465.77533	
5261	52.600	-306.09406	-5.65224	-293.26636	109.89655	100.15324	-303.95145	-239.52124	133.44972	328.80759	88.60229	32.95235	314.84073	-107.63546	1152.14697	-411.81226	-188.37619	500.87967	-470.71634	-29.71334	505.23621	-474.91653	-160.03464	577.16132	470.08173	-8.13623	572.66608	466.56244	
5262	52.610	-305.80396	-5.60611	-293.11200	106.66014	109.73950	-303.36597	-242.08992	143.33739	330.09967	89.10539	33.04943	314.92160	-109.43743	1152.57751	-410.63522	-188.76688	500.48901	-469.48071	-29.82601	505.03326	-473.85272	-159.39763	577.00769	471.35663	-7.77843	572.90564	467.55710	
5263	52.620	-305.48367	-5.53170	-292.91385	105.25436	117.64722	-301.32425	-244.54364	151.43279	331.56583	90.27756	33.15689	315.25140	-110.16814	1152.69714	-408.92474	-189.05878	500.67160	-468.31485	-30.85092	505.41217	-472.17252	-158.72908	577.02618	472.62631	-6.24425	572.72638	468.95792	
